<?xml version="1.0" encoding="UTF-8"?>
<svg id="Layer_1" data-name="Layer 1" xmlns="http://www.w3.org/2000/svg" viewBox="0 0 20.02 20.11">
  <defs>
    <style>
      .cls-1 {
        fill: #fff;
      }
    </style>
  </defs>
  <path class="cls-1" d="M19.82,14.61l-2.91-9.36c-.1-.33-.42-.55-.77-.54h-2.31v-.77c0-.06,0-.12,0-.18C13.78,1.64,12.02-.05,9.89,0c-2.13.05-3.81,1.81-3.76,3.94v.77h-2.89c-.36-.01-.68.23-.77.59L.13,14.85C.04,15.19,0,15.54,0,15.89c0,2.33,1.89,4.22,4.22,4.22h11.55c1.35.01,2.62-.63,3.41-1.72.81-1.09,1.04-2.49.64-3.78ZM7.67,3.94s0-.06,0-.1c.03-1.28,1.08-2.29,2.36-2.26s2.29,1.08,2.26,2.36v.77h-4.62v-.77Z"/>
</svg>