<svg xmlns="http://www.w3.org/2000/svg" width="20.017" height="20.025" viewBox="0 0 20.017 20.025"><g transform="translate(-3.041 -3)"><path d="M18.814,24.4H7.261a4.221,4.221,0,0,1-4.09-5.26L5.513,9.585A.77.77,0,0,1,6.283,9h12.9a.77.77,0,0,1,.77.539L22.865,18.9a4.228,4.228,0,0,1-.639,3.782A4.167,4.167,0,0,1,18.814,24.4ZM6.86,10.54,4.635,19.513a2.7,2.7,0,0,0,2.6,3.35H18.783a2.649,2.649,0,0,0,2.149-1.094,2.7,2.7,0,0,0,.408-2.411L18.629,10.54Z" transform="translate(0 -1.379)" fill="#f9f9f9"/><path d="M17.932,13.783a.77.77,0,0,1-.77-.77V6.851a2.311,2.311,0,1,0-4.621,0v6.161a.77.77,0,1,1-1.54,0V6.851a3.851,3.851,0,1,1,7.7,0v6.161A.77.77,0,0,1,17.932,13.783Z" transform="translate(-1.829)" fill="#f9f9f9"/></g></svg>