<svg xmlns="http://www.w3.org/2000/svg" width="61.772" height="63.999" viewBox="0 0 61.772 63.999"><path d="M58.9,64a5.822,5.822,0,0,1-2.46-1.73q-7.11-7.425-14.25-14.83a4.265,4.265,0,0,1-.35-.46,25.531,25.531,0,0,1-21.58,3.78A24.838,24.838,0,0,1,5.37,39.99a25.831,25.831,0,1,1,41.4,2.48c1.74,1.81,3.49,3.63,5.23,5.45,3.24,3.36,6.42,6.77,9.72,10.07a3.435,3.435,0,0,1-1.47,5.94c-.04,0-.07.05-.1.07ZM26.98,44.94A19.1,19.1,0,1,0,7.86,25.9,19.115,19.115,0,0,0,26.98,44.94Z" transform="translate(-1.111 -0.001)"/></svg>