<svg xmlns="http://www.w3.org/2000/svg" width="19.992" height="20" viewBox="0 0 19.992 20"><path d="M9.021.073c.36.05.72.088,1.077.157a8.286,8.286,0,0,1,4.447,2.386,7.971,7.971,0,0,1,2.183,4.068A7.908,7.908,0,0,1,15.86,12.3c-.316.564-.717,1.077-1.093,1.638.009.013.053.059.1.1l4.91,4.835c.354.351.395.72.11,1.005a.677.677,0,0,1-1.015-.091q-2.471-2.429-4.939-4.86L13.79,14.8c-.263.182-.517.363-.78.529a8.286,8.286,0,0,1-4.82,1.3,8.27,8.27,0,0,1-5.828-2.612A8.026,8.026,0,0,1,.174,9.6C.136,9.368.111,9.136.08,8.9V7.811a1.619,1.619,0,0,0,.034-.169c.05-.329.078-.658.147-.983A8,8,0,0,1,2.416,2.644,8.247,8.247,0,0,1,6.891.227c.344-.066.692-.1,1.037-.157H9.021ZM1.37,8.309c.016.291.016.532.044.77A6.751,6.751,0,0,0,3.234,13.05,6.939,6.939,0,0,0,9.926,15.2a6.732,6.732,0,0,0,4.992-3.864,6.6,6.6,0,0,0-.185-6.329,6.828,6.828,0,0,0-5.4-3.6A6.864,6.864,0,0,0,4.192,2.788,6.847,6.847,0,0,0,1.37,8.309Z" transform="translate(-0.08 -0.07)" fill="#f9f9f9"/></svg>