<svg xmlns="http://www.w3.org/2000/svg" width="14.987" height="20" viewBox="0 0 14.987 20"><path d="M8.045,20s-.025-.009-.025-.013V1.628a.608.608,0,0,0,.025-.069A1.857,1.857,0,0,1,9.883,0H21.154a1.863,1.863,0,0,1,1.853,1.859V20h-.025a1.142,1.142,0,0,0-.1-.075q-3.628-2.119-7.259-4.241a.192.192,0,0,0-.228,0q-3.628,2.123-7.259,4.241a1.013,1.013,0,0,0-.1.075Zm13.7-2.056V2.731a1.569,1.569,0,0,0-1.6-1.534H10.736A1.561,1.561,0,0,0,9.189,2.716v15.1c0,.034.006.069.009.119.053-.031.094-.053.134-.075q3-1.753,6-3.506a.211.211,0,0,1,.25,0q2.475,1.448,4.956,2.894c.394.228.787.459,1.2.7Z" transform="translate(-8.02)" fill="#f9f9f9"/></svg>