<svg xmlns="http://www.w3.org/2000/svg" width="20" height="20" viewBox="0 0 20 20"><g transform="translate(-0.021 0)"><path d="M14.987,23.221V17.6a2.515,2.515,0,0,1,2-2.544,2.955,2.955,0,0,1,.622-.06q5.61-.005,11.217,0a2.527,2.527,0,0,1,2.621,2.628V28.843a2.532,2.532,0,0,1-2.611,2.618H17.6a2.528,2.528,0,0,1-2.611-2.594c-.007-1.882,0-3.764,0-5.642Zm1.687.007V28.8a.847.847,0,0,0,.971.971H28.792a.849.849,0,0,0,.971-.975V17.65a.847.847,0,0,0-.971-.971H17.646a.847.847,0,0,0-.971.971v5.575Z" transform="translate(-11.426 -11.461)" fill="#f9f9f9"/><path d="M16.453,3.313H14.8V2.651a.865.865,0,0,0-.964-.971H2.665a.864.864,0,0,0-.971.961V13.815a.866.866,0,0,0,.964.971h.706v1.64a2.657,2.657,0,0,1-3.313-2.1,2.286,2.286,0,0,1-.027-.4c0-3.791-.007-7.585,0-11.375A2.49,2.49,0,0,1,2.161.037a2.984,2.984,0,0,1,.491-.03C6.382.007,10.116.02,13.846,0a2.548,2.548,0,0,1,2.6,2.171,9.215,9.215,0,0,1,.007,1.143Z" transform="translate(0 0)" fill="#f9f9f9"/></g></svg>