<svg xmlns="http://www.w3.org/2000/svg" width="20" height="20" viewBox="0 0 20 20"><path d="M10.178,20a1.355,1.355,0,0,0,1-1.331c.029-.269,0-.544.013-.815a1.375,1.375,0,0,1,.067-.416,25.963,25.963,0,0,1,2.274-4.574,7.634,7.634,0,0,1,1.153-1.369,7.6,7.6,0,0,0,.79-1.047,2.228,2.228,0,0,0,.119-.216,2.345,2.345,0,0,0,1.2.206c.736-.006,1.471,0,2.21,0A1.758,1.758,0,0,0,20.8,9.12,2.021,2.021,0,0,0,20.86,8.6q0-3.3,0-6.6A1.737,1.737,0,0,0,19.5.225a2.047,2.047,0,0,0-.536-.059c-.81-.006-1.619,0-2.429,0a1.992,1.992,0,0,0-1.015.256.518.518,0,0,1-.286.044C14.319.378,13.41.256,12.5.2,11.4.125,10.291.1,9.189.062,8.768.037,8.347.019,7.926,0H6.561c-.1.012-.2.031-.292.041A6.136,6.136,0,0,0,3.644.747a2.5,2.5,0,0,0-1.4,2.275.879.879,0,0,1-.26.659,2.47,2.47,0,0,0-.591,2.468.5.5,0,0,1-.077.481,2.266,2.266,0,0,0,0,2.721.318.318,0,0,1,.048.319A2.12,2.12,0,0,0,1.6,11.648a2.742,2.742,0,0,0,1.789,1.087,9.825,9.825,0,0,0,3.588-.022c.408-.062.81-.147,1.246-.225a2.918,2.918,0,0,1-.035.462c-.154.631-.3,1.265-.485,1.887a6.878,6.878,0,0,0-.411,2.74,2.455,2.455,0,0,0,1.385,2.1A7.024,7.024,0,0,0,9.7,20h.482ZM14.657,1.525V8.511c0,.2.039.4.055.6a.442.442,0,0,1,0,.172,3.04,3.04,0,0,1-.829,1.406,7.887,7.887,0,0,0-1.407,1.693,27.223,27.223,0,0,0-2.352,4.8,2.264,2.264,0,0,0-.093.662c-.016.266,0,.531-.016.8-.016.222-.071.25-.3.209A1.443,1.443,0,0,1,8.44,17.416a5.3,5.3,0,0,1,.267-1.884c.2-.669.4-1.337.562-2.012a3.212,3.212,0,0,0,.058-1.431.945.945,0,0,0-1.137-.762c-.215.041-.434.084-.649.131a10.92,10.92,0,0,1-3.325.259,3.117,3.117,0,0,1-1.23-.319,1.042,1.042,0,0,1-.569-1.162A2.009,2.009,0,0,1,2.6,9.723a.6.6,0,0,0-.112-.75,1.288,1.288,0,0,1-.026-1.965A.738.738,0,0,0,2.6,6.1a1.842,1.842,0,0,1-.148-.734,1.512,1.512,0,0,1,.694-1.219.69.69,0,0,0,.289-.781A1.387,1.387,0,0,1,4.116,1.79a3.832,3.832,0,0,1,1.359-.506,11.3,11.3,0,0,1,2.7-.119c1.484.069,2.968.1,4.453.169.678.031,1.356.125,2.027.191ZM19.7,5.3V8.574c0,.5-.228.734-.739.734H16.549c-.5,0-.732-.231-.732-.722V2.009c0-.484.244-.719.742-.719h2.387c.511,0,.752.231.752.725V5.293Z" transform="translate(-0.862)" fill="#f9f9f9"/></svg>