<svg xmlns="http://www.w3.org/2000/svg" width="20" height="13.53" viewBox="0 0 20 13.53"><g transform="translate(-0.999 -7.558)"><path d="M11,7.558a11.564,11.564,0,0,0-9.728,5.791,1.875,1.875,0,0,0,0,1.946A11.565,11.565,0,0,0,11,21.087,11.564,11.564,0,0,0,20.726,15.3a1.875,1.875,0,0,0,0-1.946A11.564,11.564,0,0,0,11,7.558Zm8.667,6.767A10.3,10.3,0,0,1,11,19.485,10.3,10.3,0,0,1,2.332,14.32,10.3,10.3,0,0,1,11,9.16a10.3,10.3,0,0,1,8.667,5.16Z" transform="translate(0 0)" fill="#f9f9f9"/><path d="M14.761,10.146a4.726,4.726,0,1,0,4.615,4.724A4.676,4.676,0,0,0,14.761,10.146Zm0,7.835A3.111,3.111,0,1,1,17.8,14.87,3.078,3.078,0,0,1,14.761,17.981Z" transform="translate(-3.762 -0.548)" fill="#f9f9f9"/></g></svg>