<svg xmlns="http://www.w3.org/2000/svg" width="19.99" height="20" viewBox="0 0 19.99 20"><g transform="translate(-0.091 0)"><path d="M10.245,20H9.933a.982.982,0,0,1-.462-.5c-.672-1.29-1.353-2.578-2.022-3.868a.251.251,0,0,0-.266-.162c-1.3.006-2.6,0-3.9,0A2.739,2.739,0,0,1,2,15.185,3.319,3.319,0,0,1,.1,12.057C.081,9.183.094,6.308.1,3.434a3.8,3.8,0,0,1,.078-.753A3.267,3.267,0,0,1,3.406,0c4.468.025,8.936.009,13.4.012a3.061,3.061,0,0,1,.7.062,3.21,3.21,0,0,1,2.456,2.431c.053.181.081.366.119.55v9.37c-.025.128-.053.253-.078.381a3.247,3.247,0,0,1-3.228,2.671c-1.247-.031-2.5,0-3.743-.009a.3.3,0,0,0-.316.184c-.666,1.284-1.344,2.565-2.009,3.849a1.008,1.008,0,0,1-.462.5Zm-.156-1.862c.047-.081.084-.141.116-.2.562-1.069,1.128-2.137,1.681-3.212a.712.712,0,0,1,.7-.425c1.437.006,2.875,0,4.312,0a1.8,1.8,0,0,0,1.215-.45,2.327,2.327,0,0,0,.8-1.853V3.487A3.13,3.13,0,0,0,18.872,3a2.093,2.093,0,0,0-2.09-1.828c-1.522.028-3.043.006-4.565.006H3.34A1.861,1.861,0,0,0,2.112,1.6a2.2,2.2,0,0,0-.834,1.756c-.012,2.928-.006,5.855,0,8.783a2.212,2.212,0,0,0,.034.35,2.1,2.1,0,0,0,2.093,1.825c1.372-.031,2.743,0,4.118-.012a.81.81,0,0,1,.815.5c.534,1.053,1.094,2.1,1.643,3.143.031.059.069.119.116.2Z" fill="#f9f9f9"/><path d="M26.094,16.328a4.005,4.005,0,0,1,1.871,1.818,3.89,3.89,0,0,1,.427,1.713,1.113,1.113,0,0,1-1.175,1.208c-1.037.007-2.078,0-3.115,0H21.4a1.128,1.128,0,0,1-1.228-1.316,3.911,3.911,0,0,1,2.179-3.358c.036-.02.069-.039.121-.072A2.351,2.351,0,0,1,22,14.257a2.292,2.292,0,0,1,.873-1.323,2.338,2.338,0,0,1,2.993.148A2.376,2.376,0,0,1,26.094,16.328Zm-4.681,3.492h5.738a2.879,2.879,0,0,0-5.738,0ZM24.289,13.7A1.119,1.119,0,1,0,25.4,14.822,1.128,1.128,0,0,0,24.289,13.7Z" transform="translate(-14.006 -8.705)" fill="#f9f9f9"/></g></svg>