<svg xmlns="http://www.w3.org/2000/svg" width="20" height="20" viewBox="0 0 20 20"><path d="M-268.7-348.892a3.384,3.384,0,0,1-3.4-3.4,3.384,3.384,0,0,1,3.4-3.4,3.384,3.384,0,0,1,3.4,3.4,3.411,3.411,0,0,1-3.4,3.4Zm0-5.559a2.115,2.115,0,0,0-2.111,2.111,2.115,2.115,0,0,0,2.111,2.111,2.115,2.115,0,0,0,2.111-2.111,2.143,2.143,0,0,0-2.111-2.111Z" transform="translate(272.1 362.316)" fill="#f9f9f9"/><path d="M-236.6-364.992a3.384,3.384,0,0,1-3.4-3.4,3.384,3.384,0,0,1,3.4-3.4,3.384,3.384,0,0,1,3.4,3.4,3.411,3.411,0,0,1-3.4,3.4Zm0-5.516a2.115,2.115,0,0,0-2.111,2.111,2.115,2.115,0,0,0,2.111,2.111,2.115,2.115,0,0,0,2.111-2.111,2.115,2.115,0,0,0-2.111-2.111Z" transform="translate(253.192 371.8)" fill="#f9f9f9"/><path d="M-236.6-332.892a3.384,3.384,0,0,1-3.4-3.4,3.384,3.384,0,0,1,3.4-3.4,3.384,3.384,0,0,1,3.4,3.4,3.411,3.411,0,0,1-3.4,3.4Zm0-5.516a2.115,2.115,0,0,0-2.111,2.111,2.115,2.115,0,0,0,2.111,2.111,2.115,2.115,0,0,0,2.111-2.111,2.115,2.115,0,0,0-2.111-2.111Z" transform="translate(253.192 352.892)" fill="#f9f9f9"/><path d="M-250.323-340.712l-8.877-4.438.6-1.25,8.92,4.438-.646,1.25" transform="translate(264.439 356.876)" fill="#f9f9f9"/><path d="M-258.6-356.755l-.6-1.207,8.877-4.438.646,1.207-8.92,4.438" transform="translate(264.439 366.278)" fill="#f9f9f9"/></svg>