<svg width="20" height="20" viewBox="0 0 20 20" fill="none" xmlns="http://www.w3.org/2000/svg">
<path d="M10.5804 2.9165H9.41837C8.82287 2.9165 8.52512 2.9165 8.25809 3.00984C8.09502 3.06683 7.94181 3.14883 7.80393 3.2529C7.57815 3.4233 7.41299 3.67104 7.08268 4.1665C6.91352 4.42027 6.66415 4.79431 6.56476 4.89876C6.31848 5.15756 5.99556 5.33039 5.64361 5.39175C5.50157 5.4165 5.34907 5.4165 5.04409 5.4165C4.22736 5.4165 3.819 5.4165 3.48509 5.51102C2.64982 5.74747 1.99698 6.4003 1.76053 7.23558C1.66602 7.56948 1.66602 7.97785 1.66602 8.79459V12.0832C1.66602 14.4402 1.66602 15.6187 2.39825 16.3509C3.13048 17.0832 4.309 17.0832 6.66602 17.0832H13.3327C15.6897 17.0832 16.8682 17.0832 17.6004 16.3509C18.3327 15.6187 18.3327 14.4402 18.3327 12.0832V8.79459C18.3327 7.97785 18.3327 7.56948 18.2382 7.23558C18.0017 6.4003 17.3489 5.74747 16.5136 5.51102C16.1797 5.4165 15.7714 5.4165 14.9546 5.4165C14.6496 5.4165 14.4971 5.4165 14.3551 5.39175C14.0031 5.33039 13.6802 5.15756 13.4339 4.89876C13.3345 4.7943 13.0852 4.42026 12.916 4.1665C12.5857 3.67104 12.4205 3.4233 12.1948 3.2529C12.0569 3.14883 11.9037 3.06683 11.7406 3.00984C11.4736 2.9165 11.1759 2.9165 10.5804 2.9165Z" stroke="white" stroke-width="1.5" stroke-linecap="round" stroke-linejoin="round"/>
<path d="M13.3327 10.8333C13.3327 12.6742 11.8403 14.1667 9.99937 14.1667C8.1584 14.1667 6.66602 12.6742 6.66602 10.8333C6.66602 8.99242 8.1584 7.5 9.99937 7.5C11.8403 7.5 13.3327 8.99242 13.3327 10.8333Z" stroke="white" stroke-width="1.5" stroke-linecap="round" stroke-linejoin="round"/>
<path d="M15.834 7.9165V7.92484" stroke="white" stroke-width="2" stroke-linecap="round" stroke-linejoin="round"/>
</svg>
