<svg width="33" height="25" viewBox="0 0 33 25" fill="none" xmlns="http://www.w3.org/2000/svg">
<path fill-rule="evenodd" clip-rule="evenodd" d="M30.01 25H2.858C2.10001 25 1.37307 24.6989 0.837089 24.1629C0.30111 23.627 0 22.9 0 22.142V6.42303C0 5.66504 0.30111 4.9381 0.837089 4.40212C1.37307 3.86614 2.10001 3.56503 2.858 3.56503H3.573C3.57326 3.18646 3.72363 2.82345 3.99113 2.55557C4.25863 2.2877 4.62143 2.13683 5 2.13603H6.431C6.80991 2.1363 7.17323 2.28694 7.44116 2.55487C7.7091 2.8228 7.85974 3.18612 7.86 3.56503H9.289C9.82769 3.47985 10.3268 3.23009 10.718 2.85003L12.147 1.42103C12.3228 1.20962 12.5406 1.037 12.7866 0.914103C13.0326 0.791201 13.3014 0.72069 13.576 0.707031H19.292C19.5689 0.709725 19.8415 0.775524 20.0891 0.899421C20.3367 1.02332 20.5528 1.20205 20.721 1.42203L22.15 2.85103C22.5412 3.23109 23.0403 3.48085 23.579 3.56603H30.01C30.768 3.56603 31.4949 3.86714 32.0309 4.40312C32.5669 4.9391 32.868 5.66604 32.868 6.42403V22.142C32.868 22.9 32.5669 23.627 32.0309 24.1629C31.4949 24.6989 30.768 25 30.01 25ZM31.439 6.42303C31.4387 6.04412 31.2881 5.6808 31.0202 5.41287C30.7522 5.14494 30.3889 4.9943 30.01 4.99403L23.421 4.98503C22.5592 4.86677 21.7589 4.4724 21.14 3.86103L19.618 2.33903L19.544 2.23103C19.4729 2.17146 19.3846 2.13639 19.292 2.13103H13.576C13.4618 2.15482 13.3573 2.21229 13.276 2.29603L13.222 2.36503L11.731 3.85503C11.1122 4.46646 10.3119 4.86084 9.45 4.97903H6.484C6.467 4.97903 6.45 4.98503 6.434 4.98503H5C4.99 4.98503 4.981 4.98503 4.971 4.98503H2.856C2.47709 4.9853 2.11377 5.13594 1.84584 5.40387C1.5779 5.6718 1.42726 6.03512 1.427 6.41403V22.142C1.42726 22.5209 1.5779 22.8843 1.84584 23.1522C2.11377 23.4201 2.47709 23.5708 2.856 23.571H30.01C30.3889 23.5708 30.7522 23.4201 31.0202 23.1522C31.2881 22.8843 31.4387 22.5209 31.439 22.142V6.42303ZM16.439 22.142C14.8844 22.142 13.3648 21.6811 12.0722 20.8174C10.7796 19.9537 9.77221 18.7262 9.17731 17.2899C8.5824 15.8537 8.42675 14.2733 8.73003 12.7486C9.03331 11.2239 9.7819 9.82341 10.8811 8.72417C11.9804 7.62493 13.3809 6.87634 14.9056 6.57306C16.4303 6.26978 18.0107 6.42543 19.4469 7.02034C20.8831 7.61524 22.1107 8.62268 22.9744 9.91525C23.838 11.2078 24.299 12.7275 24.299 14.282C24.299 15.3146 24.0955 16.3371 23.7002 17.2911C23.3049 18.245 22.7255 19.1117 21.9951 19.8417C21.2647 20.5716 20.3976 21.1505 19.4434 21.5452C18.4892 21.9399 17.4666 22.1427 16.434 22.142H16.439ZM16.439 7.85203C15.1671 7.85203 13.9237 8.2292 12.8661 8.93585C11.8086 9.6425 10.9843 10.6469 10.4975 11.822C10.0108 12.9971 9.88343 14.2902 10.1316 15.5377C10.3797 16.7851 10.9922 17.931 11.8916 18.8304C12.791 19.7298 13.9369 20.3423 15.1844 20.5905C16.4319 20.8386 17.7249 20.7112 18.9 20.2245C20.0751 19.7378 21.0795 18.9135 21.7862 17.8559C22.4928 16.7983 22.87 15.555 22.87 14.283C22.8701 13.438 22.7037 12.6013 22.3803 11.8207C22.0568 11.0401 21.5827 10.3308 20.9849 9.73357C20.3872 9.1363 19.6776 8.66271 18.8967 8.33986C18.1158 8.01701 17.279 7.85124 16.434 7.85203H16.439ZM16.439 17.852C15.7323 17.852 15.0415 17.6425 14.4539 17.2499C13.8664 16.8573 13.4084 16.2992 13.138 15.6464C12.8675 14.9935 12.7968 14.2751 12.9347 13.582C13.0725 12.8889 13.4128 12.2522 13.9125 11.7525C14.4122 11.2528 15.0488 10.9125 15.7419 10.7747C16.435 10.6368 17.1534 10.7076 17.8063 10.978C18.4592 11.2484 19.0172 11.7064 19.4098 12.294C19.8024 12.8816 20.012 13.5724 20.012 14.279C20.0125 14.749 19.9203 15.2144 19.7407 15.6486C19.561 16.0828 19.2975 16.4773 18.9651 16.8095C18.6327 17.1417 18.238 17.4051 17.8037 17.5845C17.3694 17.7639 16.9039 17.8558 16.434 17.855L16.439 17.852ZM16.439 12.136C16.015 12.136 15.6004 12.2618 15.2479 12.4974C14.8953 12.7329 14.6205 13.0678 14.4582 13.4596C14.2959 13.8513 14.2535 14.2824 14.3362 14.6983C14.4189 15.1142 14.6231 15.4962 14.923 15.7961C15.2228 16.0959 15.6048 16.3001 16.0207 16.3828C16.4366 16.4656 16.8677 16.4231 17.2595 16.2608C17.6512 16.0986 17.9861 15.8238 18.2217 15.4712C18.4573 15.1186 18.583 14.7041 18.583 14.28C18.5826 13.9983 18.5267 13.7194 18.4185 13.4593C18.3102 13.1992 18.1518 12.963 17.9522 12.7642C17.7526 12.5653 17.5158 12.4078 17.2553 12.3005C16.9948 12.1932 16.7157 12.1384 16.434 12.139L16.439 12.136ZM6.439 9.27803H3.573C3.47907 9.27816 3.38603 9.25976 3.29923 9.22387C3.21242 9.18799 3.13354 9.13533 3.06712 9.06891C3.0007 9.00249 2.94804 8.92361 2.91216 8.83681C2.87627 8.75 2.85787 8.65696 2.858 8.56303V7.13803C2.85787 7.0441 2.87627 6.95106 2.91216 6.86426C2.94804 6.77745 3.0007 6.69858 3.06712 6.63216C3.13354 6.56574 3.21242 6.51307 3.29923 6.47719C3.38603 6.4413 3.47907 6.4229 3.573 6.42303H6.431C6.52493 6.4229 6.61797 6.4413 6.70477 6.47719C6.79158 6.51307 6.87045 6.56574 6.93687 6.63216C7.00329 6.69858 7.05596 6.77745 7.09184 6.86426C7.12773 6.95106 7.14613 7.0441 7.146 7.13803V8.56703C7.146 8.66088 7.1275 8.75381 7.09155 8.8405C7.05561 8.92719 7.00293 9.00595 6.93652 9.07226C6.87011 9.13857 6.79129 9.19115 6.70454 9.22697C6.6178 9.26279 6.52485 9.28116 6.431 9.28103L6.439 9.27803Z" fill="#F9F9F9"/>
</svg>
