<svg width="20" height="20" viewBox="0 0 20 20" fill="none" xmlns="http://www.w3.org/2000/svg">
<path d="M5 14.9788C5.10725 16.0691 5.34963 16.803 5.89742 17.3507C6.87997 18.3333 8.46133 18.3333 11.6241 18.3333C14.7868 18.3333 16.3682 18.3333 17.3507 17.3507C18.3333 16.3682 18.3333 14.7868 18.3333 11.6241C18.3333 8.46133 18.3333 6.87997 17.3507 5.89742C16.803 5.34963 16.0691 5.10725 14.9788 5" stroke="white" stroke-width="1.5"/>
<path d="M1.66602 8.33317C1.66602 5.19047 1.66602 3.61913 2.64232 2.64281C3.61864 1.6665 5.18998 1.6665 8.33268 1.6665C11.4753 1.6665 13.0468 1.6665 14.023 2.64281C14.9993 3.61913 14.9993 5.19047 14.9993 8.33317C14.9993 11.4758 14.9993 13.0473 14.023 14.0235C13.0468 14.9998 11.4753 14.9998 8.33268 14.9998C5.18998 14.9998 3.61864 14.9998 2.64232 14.0235C1.66602 13.0473 1.66602 11.4758 1.66602 8.33317Z" stroke="white" stroke-width="1.5"/>
<path d="M1.66602 9.26528C2.18187 9.1997 2.70338 9.16737 3.22577 9.16845C5.43572 9.12762 7.59155 9.73012 9.3086 10.8685C10.901 11.9244 12.0199 13.3774 12.4993 14.9999" stroke="white" stroke-width="1.5" stroke-linejoin="round"/>
<path d="M10.834 5.8335H10.8415" stroke="white" stroke-width="2" stroke-linecap="round" stroke-linejoin="round"/>
</svg>
