<svg width="20" height="20" viewBox="0 0 20 20" fill="none" xmlns="http://www.w3.org/2000/svg">
<path d="M9.16602 6.6665H10.8327" stroke="white" stroke-width="1.5" stroke-linecap="round"/>
<path d="M1.66602 9.16683C1.66602 6.41697 1.66602 5.04204 2.52029 4.18777C3.37456 3.3335 4.74949 3.3335 7.49935 3.3335H8.33268C11.0825 3.3335 12.4574 3.3335 13.3118 4.18777C14.166 5.04204 14.166 6.41697 14.166 9.16683V10.8335C14.166 13.5833 14.166 14.9582 13.3118 15.8126C12.4574 16.6668 11.0825 16.6668 8.33268 16.6668H7.49935C4.74949 16.6668 3.37456 16.6668 2.52029 15.8126C1.66602 14.9582 1.66602 13.5833 1.66602 10.8335V9.16683Z" stroke="white" stroke-width="1.5"/>
<path d="M14.166 7.42138L14.2709 7.33481C16.0341 5.88003 16.9157 5.15264 17.6242 5.50386C18.3327 5.85507 18.3327 7.01946 18.3327 9.34826V10.6514C18.3327 12.9803 18.3327 14.1446 17.6242 14.4958C16.9157 14.847 16.0341 14.1197 14.2709 12.6648L14.166 12.5783" stroke="white" stroke-width="1.5" stroke-linecap="round"/>
</svg>
