<svg width="33" height="22" viewBox="0 0 33 22" fill="none" xmlns="http://www.w3.org/2000/svg">
<path d="M30.8008 1H29.9138C29.3897 1.00114 28.8869 1.20798 28.5138 1.576L25.8008 4.248V3C25.8008 2.20435 25.4847 1.44129 24.9221 0.87868C24.3595 0.316071 23.5964 0 22.8008 0H3.80078C3.00513 0 2.24207 0.316071 1.67946 0.87868C1.11685 1.44129 0.800781 2.20435 0.800781 3L0.800781 19C0.800781 19.7956 1.11685 20.5587 1.67946 21.1213C2.24207 21.6839 3.00513 22 3.80078 22H22.8008C23.5964 22 24.3595 21.6839 24.9221 21.1213C25.4847 20.5587 25.8008 19.7956 25.8008 19V17.779L28.5098 20.451C28.8829 20.819 29.3857 21.0259 29.9098 21.027H30.8008C31.3312 21.027 31.8399 20.8163 32.215 20.4412C32.5901 20.0661 32.8008 19.5574 32.8008 19.027V3C32.8008 2.46957 32.5901 1.96086 32.215 1.58579C31.8399 1.21071 31.3312 1 30.8008 1ZM3.80078 20C3.53556 20 3.28121 19.8946 3.09367 19.7071C2.90614 19.5196 2.80078 19.2652 2.80078 19V3C2.80078 2.73478 2.90614 2.48043 3.09367 2.29289C3.28121 2.10536 3.53556 2 3.80078 2H22.8008C23.066 2 23.3204 2.10536 23.5079 2.29289C23.6954 2.48043 23.8008 2.73478 23.8008 3V19C23.8008 19.2652 23.6954 19.5196 23.5079 19.7071C23.3204 19.8946 23.066 20 22.8008 20H3.80078ZM30.8008 19.027H29.8008L25.8008 15.027V15L24.8008 14V8L29.8008 3H30.8008V19.027Z" fill="#F9F9F9"/>
</svg>
