<svg xmlns="http://www.w3.org/2000/svg" width="18.506" height="16.771" viewBox="0 0 18.506 16.771"><path d="M16.98,3.525a5.2,5.2,0,0,0-7.36,0L1.183,11.862a4.048,4.048,0,0,0,5.724,5.725L15.344,9.25A2.891,2.891,0,0,0,11.256,5.16L4.913,11.5a.578.578,0,1,0,.818.818l6.343-6.343a1.735,1.735,0,0,1,2.453,2.454L6.09,16.769A2.891,2.891,0,0,1,2,12.681l8.355-8.256a4.048,4.048,0,0,1,5.725,5.725L9.82,16.41a.578.578,0,0,0,.818.818l6.342-6.343A5.2,5.2,0,0,0,16.98,3.525Z" transform="translate(0.001 -2)" fill="#f9f9f9"/></svg>