<?xml version="1.0" encoding="UTF-8"?>
<svg id="Layer_1" data-name="Layer 1" xmlns="http://www.w3.org/2000/svg" viewBox="0 0 512.83 458.74">
  <path d="M372.28.66c7.16-2.16,12.35,1.18,16.16,6.82l1.37,437.95c-4.45,20.81-27.19,15.67-26.49-4.78l1.93-432.61c1.62-2.88,3.69-6.38,7.02-7.39Z"/>
  <path d="M133.7,38.84c9.73-1.5,15.96,8.7,15.08,17.4l-.07,348.55c-.18,8.12-4.89,14.38-13.18,15.29l-10.91-5.62-2.32-363c-.57-5.99,5.93-11.78,11.39-12.62Z"/>
  <path d="M312.67,77.07c12.78-3.71,16.56,7.17,17.48,17.35,7.85,86.39-6.15,184.56-.06,272.21-.41,19.24-23.98,21.53-26.43,2.46V89.64c-.25-4.9,4.48-11.25,9.01-12.57Z"/>
  <path d="M62.77,120.78c7.27-7.88,16.72-7.76,23.86,0v217.15c-7.27,7.88-16.72,7.76-23.86,0V120.78Z"/>
  <path d="M436.6,117.71c8.98-.81,12.17,7.69,12.89,14.87,6.17,61.54-4.99,133.28-.02,195.93-2.21,16.22-22.13,17.5-24.12-2.37-6.17-61.54,4.99-133.28.02-195.93-.72-5.68,6.07-12.04,11.23-12.5Z"/>
  <path d="M190.95,139.17c11.63-3.45,16.18,1.63,17.43,12.59,3.74,32.87,3.76,122.35,0,155.19-2.38,20.74-24.33,16.01-26.42.08,4.93-48.38-6.13-108.43,0-155.36.68-5.21,3.52-10.88,8.99-12.51Z"/>
  <path d="M253.02,165.28c8.39-2.28,14.13,5.24,15.1,12.65,4.16,31.64-3.29,72.37-.18,105.06-4.63,15.4-21.86,13.87-23.93-2.2-2.46-19.15-2.5-83.78,0-102.86.65-4.93,3.63-11.19,9.01-12.65Z"/>
  <path d="M494.04,177.22c10.33-2.75,16.33,5.92,17.4,15.11,1.73,14.94,2.05,61.96-.19,76.26-2.67,17-23.93,18.14-26.22.27-1.65-12.81-2.01-69.5.19-81.2.74-3.96,5.11-9.45,8.84-10.44Z"/>
  <path d="M9.59,179.74c11.63-3.45,16.18,1.63,17.43,12.59,1.74,15.29,2.05,61.57-.2,76.24-2.37,15.43-20.32,13.97-24.84,3.69C-.05,267.65-.65,197.72.79,190.05c.76-4.06,4.82-9.12,8.8-10.31Z"/>
</svg>