<svg xmlns="http://www.w3.org/2000/svg" width="23.742" height="23.802" viewBox="0 0 23.742 23.802"><g transform="translate(-1.306 0.003)"><path d="M12.153,20.114c.971,4.972-6.531,4.714-5.128-.113a2.7,2.7,0,0,1-.969-4.788,3.063,3.063,0,0,1,1.939-.569c.157-.017.205.058.157-.158L3.481,2.059c-.3-.409-1.324.041-1.874-.405A.929.929,0,0,1,2.073.061c.642-.1,2.4-.156,2.771.407L10.17,14.65l11.312-.022,1.5-9.1H9.246c-.514,0-1.157-1.666.225-1.826H24.18c.7.048.964.656.838,1.3-.765,3.349-.94,7.037-1.73,10.353-.17.714-.214,1.047-1.043,1.122-4.6.416-9.82-.32-14.483-.008-1.061.051-1.326,1.648-.218,1.82l7.692.058c1,.307.7,1.773.051,1.773H12.153Zm-2.766.017c-1.389.251-.573,2.631.721,1.528A.885.885,0,0,0,9.387,20.132Z" transform="translate(0 0)" fill="#f9f9f9"/><path d="M354.559,397.407c-2.51-2.555,1.721-6.666,4.174-3.547C360.825,396.523,357.017,399.91,354.559,397.407Zm2.662-1.247c.767-.647-.325-2.084-1.167-1.336A.89.89,0,1,0,357.221,396.16Z" transform="translate(-336.097 -374.484)" fill="#f9f9f9"/></g></svg>