<svg xmlns="http://www.w3.org/2000/svg" width="23.57" height="24" viewBox="0 0 23.57 24"><path d="M11.628,0c-.446.06-.9.1-1.343.188a11.564,11.564,0,0,0-8.33,6.076,11.437,11.437,0,0,0-1.294,6.8,11.845,11.845,0,0,0,9.032,10.2A11.461,11.461,0,0,0,15.953,23a2.374,2.374,0,0,1,1.215.045c1.8.308,3.6.63,5.4.945a.646.646,0,0,0,.653-.221.66.66,0,0,0,.068-.728q-.8-1.857-1.605-3.717a.328.328,0,0,1,.041-.379,11.672,11.672,0,0,0,2.34-8.63,11.473,11.473,0,0,0-2.509-5.889A11.573,11.573,0,0,0,14.377.188C13.92.105,13.451.06,12.99,0ZM21.65,22.5a1.14,1.14,0,0,1-.161,0c-1.459-.255-2.922-.5-4.381-.776a3.191,3.191,0,0,0-1.647.075,9.939,9.939,0,0,1-6.264,0A10.493,10.493,0,0,1,14.34,1.482a10.251,10.251,0,0,1,7.468,5.731,10.133,10.133,0,0,1,.533,7.854,10.064,10.064,0,0,1-1.894,3.417.8.8,0,0,0-.124.926c.236.51.45,1.028.671,1.545s.435,1.016.66,1.542Z" transform="translate(-0.59)" fill="#f9f9f9"/><path d="M25.395,35.323h4.858a.788.788,0,0,0,.144-1.57c-.1-.009-.195,0-.287,0H20.685c-.63,0-1,.287-1.014.778s.37.8,1.014.8H25.4Z" transform="translate(-13.6 -21.257)" fill="#f9f9f9"/><path d="M22.61,26.752c.695,0,1.385.009,2.079,0a.8.8,0,1,0,0-1.588c-1.394,0-2.793-.009-4.186,0a.8.8,0,1,0-.009,1.588c.7.014,1.408,0,2.107,0Z" transform="translate(-8.7 -15.849)" fill="#f9f9f9"/></svg>