<svg xmlns="http://www.w3.org/2000/svg" width="22.857" height="20" viewBox="0 0 22.857 20"><path d="M31.357,14c4.261,0,7.857,2.289,7.857,5a.357.357,0,1,1-.714,0c0-2.282-3.339-4.286-7.143-4.286a.357.357,0,0,1,0-.714Z" transform="translate(-19.929 -10.429)" fill="#f9f9f9"/><path d="M11.429,4c6.311,0,11.429,3.839,11.429,8.571,0,2.946-1.986,5.546-5.007,7.089,0,.018.007.032.007.054A7.461,7.461,0,0,0,19.236,23.1h0a.675.675,0,0,1,.054.257.646.646,0,0,1-.646.646c-.068,0-.186-.018-.182-.011a9.57,9.57,0,0,1-4.825-3.011,15.343,15.343,0,0,1-2.2.164C5.118,21.143,0,17.3,0,12.571S5.118,4,11.429,4Zm0,15.714a14.058,14.058,0,0,0,2-.146,1.347,1.347,0,0,1,.207-.014,1.426,1.426,0,0,1,1.1.521,9.629,9.629,0,0,0,2.2,1.814,5.584,5.584,0,0,1-.511-2.093c0-.046-.007-.093-.007-.132a1.426,1.426,0,0,1,.779-1.271c2.646-1.35,4.229-3.525,4.229-5.818,0-3.939-4.486-7.143-10-7.143s-10,3.2-10,7.139S5.914,19.714,11.429,19.714Z" transform="translate(0 -4)" fill="#f9f9f9"/></svg>