<?xml version="1.0" encoding="UTF-8"?><svg id="Layer_1" xmlns="http://www.w3.org/2000/svg" width="64" height="64" viewBox="0 0 64 64"><path d="M35.77,14.83c0,3.4,.09,6.81-.03,10.21-.08,2.24,.66,3.28,3.02,3.11,1.75-.13,3.54-.12,5.29,.03,3.49,.31,5.15,3.63,2.85,6.19-3.87,4.3-7.96,8.45-12.33,12.23-1.03,.89-4.2,.81-5.28-.11-4.2-3.6-8.07-7.6-11.79-11.71-.89-.99-1.29-3.14-.86-4.39,.36-1.03,2.2-1.89,3.52-2.16,2.52-.52,6.37,.36,7.41-1.03,1.37-1.81,.61-5.27,.65-8.02,.06-4.41,.03-8.82,.01-13.23-.01-2.85-.22-6.03,3.85-5.95,4.07,.09,3.67,3.35,3.67,6.14,0,2.9,0,5.8,0,8.7Z"/><path d="M31.61,64c-7.44,0-14.87,.02-22.31,0-2.7,0-5.32-.44-5.2-3.95,.12-3.4,2.68-3.78,5.41-3.77,15,.02,30,.02,45,0,2.73,0,5.29,.4,5.39,3.8,.1,3.5-2.53,3.91-5.22,3.92-7.69,.02-15.38,0-23.07,0Z"/></svg>