<svg xmlns="http://www.w3.org/2000/svg" width="64.007" height="56.703" viewBox="0 0 64.007 56.703"><path d="M31.99,10.7A18.26,18.26,0,0,1,42.08,4.16c12-2.94,23.41,7.42,21.76,19.68-.96,7.17-4.34,13.13-8.9,18.51A83.419,83.419,0,0,1,33.55,59.92a3.206,3.206,0,0,1-2.72.22C20.2,53.76,10.57,46.25,4.08,35.4A27.288,27.288,0,0,1,0,22.11,17.756,17.756,0,0,1,31.15,9.78c.23.25.46.5.85.92ZM4.73,22.25c.11,4.74,2.26,9.45,5.35,13.77,5.64,7.87,13.07,13.77,21.17,18.88a1.9,1.9,0,0,0,1.68-.13A80.614,80.614,0,0,0,50.14,40.64c4.44-4.94,8.01-10.35,8.96-17.16A13.093,13.093,0,0,0,42.28,9.02a12.807,12.807,0,0,0-8.02,7.16c-.85,1.83-2.72,2.28-3.94.98a6.7,6.7,0,0,1-.97-1.64,13.036,13.036,0,0,0-14.7-6.75c-5.83,1.41-9.96,6.72-9.92,13.47Z" transform="translate(0.007 -3.653)"/></svg>