<svg xmlns="http://www.w3.org/2000/svg" width="21.814" height="20" viewBox="0 0 21.814 20"><path d="M0,9.067V8.658a.72.72,0,0,0,.078-.222,5.24,5.24,0,0,1,1.067-3.03,6.113,6.113,0,0,1,6.2-2.666,6.139,6.139,0,0,1,3.33,1.691c.17.153.293.222.477.037a5.966,5.966,0,0,1,4-1.786,6.118,6.118,0,0,1,5.113,2.137,6.251,6.251,0,0,1,1.473,5.294,13.348,13.348,0,0,1-4,7.38,25.679,25.679,0,0,1-2.85,2.557c-1.19.92-2.468,1.735-3.722,2.57a.657.657,0,0,1-.545-.031,7.866,7.866,0,0,1-1.1-.689c-1.258-.92-2.567-1.786-3.736-2.812a29.36,29.36,0,0,1-2.935-3.1A10.922,10.922,0,0,1,.511,11.821C.266,10.921.164,9.984,0,9.067ZM3.024,8.5a2.4,2.4,0,0,0,.416.692.746.746,0,0,0,1.251-.545A1.684,1.684,0,0,1,6.4,6.981a.781.781,0,0,0,.729-.832.878.878,0,0,0-.944-.77A3.41,3.41,0,0,0,3.024,8.5Z" transform="translate(0 -2.668)" fill="#c5172e"/></svg>