<svg xmlns="http://www.w3.org/2000/svg" width="80.784" height="80.784" viewBox="0 0 80.784 80.784"><rect width="32.833" height="32.833" rx="6" transform="translate(0 47.951)" fill="#c5172e"/><path d="M73.514,40.392H47.663a7.27,7.27,0,0,1-7.271-7.271V7.271A7.27,7.27,0,0,0,33.122,0H7.271A7.27,7.27,0,0,0,0,7.271V33.122a7.27,7.27,0,0,0,7.271,7.271H33.122a7.27,7.27,0,0,1,7.271,7.271V73.514a7.27,7.27,0,0,0,7.271,7.271H73.514a7.27,7.27,0,0,0,7.271-7.271V47.663a7.27,7.27,0,0,0-7.271-7.271Z" fill="#c5172e"/></svg>