<svg xmlns="http://www.w3.org/2000/svg" width="20.279" height="24" viewBox="0 0 20.279 24"><path d="M9.762,24a4.006,4.006,0,0,1-1.416-.522,3.333,3.333,0,0,1-1.5-2.224c-.011-.06-.026-.12-.049-.207H6.546c-1.3,0-2.611.015-3.914,0A2.687,2.687,0,0,1,.3,17.119a3.275,3.275,0,0,1,.515-.691q.6-.648,1.232-1.255a1.358,1.358,0,0,0,.428-1.067c-.008-1.5-.068-3,.026-4.5A7.465,7.465,0,0,1,6.918,3.055c.319-.162.665-.27,1.022-.413a2.239,2.239,0,0,1,.74-2.1A2.189,2.189,0,0,1,10.254,0a2.256,2.256,0,0,1,2.088,2.648c.27.105.556.192.819.316A7.571,7.571,0,0,1,17.8,10.113c.026,1.333.011,2.671,0,4.008a1.367,1.367,0,0,0,.428,1.044c.455.439.9.89,1.33,1.356a2.688,2.688,0,0,1-1.36,4.444,3.092,3.092,0,0,1-.721.071c-1.243.008-2.483,0-3.726,0h-.263c-.056.218-.094.432-.165.635a3.313,3.313,0,0,1-2.674,2.276.885.885,0,0,0-.131.041H9.762Zm.376-4.594H17.47a1.117,1.117,0,0,0,.8-.263,1.045,1.045,0,0,0,.071-1.506c-.424-.458-.864-.9-1.311-1.341a2.824,2.824,0,0,1-.875-2.122c.008-1.337.011-2.671,0-4.008a7.965,7.965,0,0,0-.113-1.3,6,6,0,0,0-8.29-4.376A5.86,5.86,0,0,0,4.12,10.094c-.023,1.36-.011,2.72,0,4.076a2.838,2.838,0,0,1-.875,2.122c-.417.409-.826.83-1.228,1.255a1.453,1.453,0,0,0-.3.439A1.051,1.051,0,0,0,2.741,19.4h7.4ZM8.5,21.051a1.671,1.671,0,0,0,1.7,1.3,1.649,1.649,0,0,0,1.566-1.3Zm2.2-18.71a.575.575,0,0,0-.267-.616.542.542,0,0,0-.635.023.534.534,0,0,0-.225.593Z" transform="translate(0.007 0.004)" fill="#f9f9f9"/></svg>