<?xml version="1.0" encoding="UTF-8"?>
<svg id="Layer_1" data-name="Layer 1" xmlns="http://www.w3.org/2000/svg" viewBox="0 0 27.26 27.26">
  <defs>
    <style>
      .cls-1 {
        fill: #f9f9f9;
      }
    </style>
  </defs>
  <path class="cls-1" d="M.61,25.81c-.5-.5-.68-1.23-.47-1.9l2.35-7.63c.15-.49.67-.77,1.17-.62s.77.67.62,1.17l-2.35,7.62,23.38-10.77L1.95,2.76l2.99,9.92h10.96c.52,0,.94.42.94.94,0,.52-.42.94-.94.94H4.25c-.41-.01-.77-.28-.89-.66L.14,3.38C-.21,2.41.29,1.34,1.26.99c.49-.18,1.03-.14,1.49.1l23.32,10.82c.95.39,1.41,1.48,1.02,2.43-.19.46-.56.83-1.02,1.02L2.75,26.2c-.68.33-1.49.21-2.06-.29l-.09-.09Z"/>
</svg>